<svg xmlns="http://www.w3.org/2000/svg" width="440" height="438" viewBox="0 0 440 438" version="1.1"><path d="" stroke="none" fill="#0854fc" fill-rule="evenodd"/><path d="M 154 10.895 C 146.025 13.547, 134.550 18.068, 128.500 20.942 C 117.836 26.007, 117.206 26.174, 107.854 26.400 C 96.761 26.669, 94.322 27.758, 91.647 33.641 C 90.206 36.812, 88.876 37.923, 84.196 39.870 C 77.960 42.465, 76.897 42.582, 69.445 41.501 C 64.539 40.789, 64.251 40.888, 59.667 44.856 C 57.069 47.104, 53.107 51.065, 50.863 53.659 C 47.171 57.924, 46.834 58.761, 47.327 62.437 C 47.627 64.672, 48.158 67.434, 48.507 68.575 C 49.029 70.282, 47.330 72.235, 38.936 79.575 C 33.322 84.484, 23.392 94.350, 16.867 101.500 C 7.225 112.067, 5.005 115.064, 5.003 117.513 C 4.999 121.448, 62.333 224.439, 66.073 227.216 C 70.539 230.532, 72.982 228.933, 85.459 214.527 C 97.667 200.430, 116.451 181.872, 121.604 178.816 C 123.311 177.803, 125.477 175.268, 126.418 173.182 C 127.845 170.018, 129.206 168.919, 134.631 166.556 C 140.438 164.026, 141.540 163.845, 144.933 164.862 C 151.380 166.793, 153.495 166.292, 159.113 161.496 C 166.876 154.870, 172 148.291, 172 144.951 C 172 142.323, 172.881 141.688, 184.250 136.118 C 190.988 132.818, 202.125 128.255, 209 125.980 C 222.224 121.603, 226 119.203, 226 115.177 C 226 112.108, 179.433 9.702, 177.062 7.556 C 174.302 5.059, 169.428 5.764, 154 10.895 M 102.983 46.034 C 101.671 48.604, 99.759 50.556, 97.712 51.411 C 95.946 52.150, 92.025 53.755, 89 54.979 C 85.975 56.202, 82.271 57.703, 80.768 58.314 C 78.723 59.145, 76.864 59.111, 73.371 58.177 C 68.736 56.937, 68.687 56.950, 66.054 60.104 C 63.617 63.023, 63.480 63.653, 64.355 67.923 C 65.233 72.209, 64.965 73.410, 60.873 83.530 C 56.766 93.687, 56.129 94.666, 52.220 96.822 C 48.263 99.004, 48 99.421, 48 103.500 C 48 107.577, 48.264 107.996, 52.214 110.175 C 55.885 112.200, 56.769 113.402, 59.074 119.500 C 60.529 123.350, 62.455 127.850, 63.354 129.500 C 65.284 133.044, 65.406 135.536, 63.868 139.949 C 62.821 142.952, 62.969 143.430, 65.817 146.279 C 68.812 149.274, 69.033 149.329, 73.699 148.258 C 78.084 147.251, 79.064 147.399, 85 149.962 C 88.575 151.506, 93.272 153.384, 95.438 154.135 C 98.079 155.050, 100.365 156.900, 102.380 159.750 C 105.118 163.622, 105.766 164, 109.672 164 C 113.650 164, 114.103 163.718, 115.953 160.093 C 117.526 157.009, 118.951 155.822, 122.723 154.454 C 125.350 153.502, 129.917 151.660, 132.871 150.361 C 138.733 147.784, 142.384 147.435, 146.622 149.046 C 149.080 149.981, 149.733 149.734, 152.733 146.733 C 155.734 143.733, 155.981 143.080, 155.046 140.622 C 153.431 136.372, 153.800 131.263, 156.016 127.198 C 157.125 125.164, 158.937 120.969, 160.041 117.876 C 161.769 113.038, 162.676 111.920, 166.525 109.878 C 170.732 107.646, 171 107.253, 171 103.327 C 171 99.466, 170.685 98.974, 166.841 96.825 C 162.211 94.237, 162.135 94.129, 158.453 85 C 157.012 81.425, 155.328 77.279, 154.711 75.787 C 153.919 73.872, 153.885 71.635, 154.593 68.177 C 155.533 63.591, 155.424 63.072, 152.881 60.026 L 150.165 56.773 145.089 58.074 C 140.282 59.306, 139.711 59.233, 134.257 56.695 C 131.091 55.222, 126.251 53.211, 123.503 52.228 C 119.464 50.783, 118.059 49.630, 116.178 46.220 C 113.989 42.251, 113.588 42, 109.445 42 C 105.307 42, 104.916 42.244, 102.983 46.034 M 230.303 62.169 C 225.220 64.690, 225.915 73.273, 231.404 75.774 C 233.437 76.700, 249.663 77.004, 297.797 77.015 C 369.061 77.031, 368.203 76.960, 382.542 84.036 C 415.381 100.241, 429.240 140.843, 413.079 173.500 C 403.600 192.655, 388.388 205.292, 368 210.946 C 363.152 212.290, 355.796 213.254, 347.199 213.670 C 334.604 214.281, 333.794 214.447, 331.949 216.792 C 329.709 219.640, 329.564 220.948, 331.110 224.343 C 332.737 227.914, 336.087 229, 345.475 229 C 371.362 229, 392.774 220.766, 409.418 204.412 C 438.911 175.431, 443.765 132.534, 421.368 98.808 C 414.355 88.248, 400.744 76.107, 389.738 70.591 C 371.323 61.365, 373.742 61.610, 298.500 61.327 C 252.413 61.154, 231.837 61.408, 230.303 62.169 M 99.615 76.579 C 92.796 78.757, 84.902 86.767, 82.527 93.919 C 78.046 107.410, 84.071 122.463, 96.356 128.474 C 107.604 133.976, 118.833 132.552, 127.808 124.483 C 134.720 118.268, 137.417 112.392, 137.439 103.500 C 137.460 95.111, 135.078 89.144, 129.467 83.533 C 122.129 76.196, 109.803 73.325, 99.615 76.579 M 231.500 153.900 C 223.215 155.974, 211.563 161.689, 206.430 166.196 C 202.915 169.282, 202.456 169.403, 195.300 169.136 C 190.025 168.940, 186.339 169.393, 182.734 170.679 C 175.519 173.255, 167.795 180.640, 163.774 188.807 C 160.893 194.659, 160.502 196.422, 160.515 203.479 C 160.532 212.586, 162.926 219.251, 168.101 224.599 C 171.066 227.663, 171.104 227.841, 171.383 240.099 C 171.719 254.837, 173.390 261.914, 179.548 274.681 C 187.135 290.408, 200.174 302.007, 216.538 307.586 C 223.265 309.880, 226.206 310.305, 235.500 310.330 C 245.324 310.356, 247.516 310.013, 256 307.120 C 261.225 305.339, 268.679 301.903, 272.564 299.485 C 281.092 294.179, 295.086 279.940, 300.420 271.143 C 315.534 246.219, 318.108 214.132, 306.982 189.359 C 299.123 171.860, 282.407 157.666, 264.754 153.504 C 256.312 151.514, 240.268 151.704, 231.500 153.900 M 185.440 186.453 C 177.505 191.210, 173.693 202.700, 177.256 211.118 C 179.314 215.980, 181.109 217.218, 214 236.465 L 242.500 253.142 248.152 252.764 C 252.347 252.484, 254.706 251.699, 257.299 249.721 C 261.503 246.515, 266 237.934, 266 233.119 C 266 228.277, 262.654 221.911, 258.765 219.353 C 252.278 215.086, 203.422 186.690, 200.282 185.362 C 195.421 183.305, 190.030 183.701, 185.440 186.453 M 31.556 236.096 C 20.167 246.750, 11.246 261.337, 7.458 275.500 C 5.175 284.036, 4.430 301.587, 5.979 310.332 C 11.630 342.238, 35.403 368.628, 67.039 378.113 C 74.026 380.208, 76.777 380.376, 110.352 380.753 C 146.004 381.154, 146.218 381.144, 148.508 378.992 C 149.775 377.802, 151.020 376.031, 151.275 375.056 C 152.025 372.187, 149.367 367.123, 146.813 366.556 C 145.541 366.273, 129.425 365.893, 111 365.711 C 79.288 365.397, 77.126 365.257, 70.500 363.091 C 58.103 359.039, 50.151 354.242, 41.415 345.547 C 28.725 332.916, 22.900 321.149, 20.693 303.678 C 18.066 282.892, 25.513 263.299, 42.345 246.711 C 48.703 240.446, 49.185 239.675, 48.595 236.724 C 47.764 232.571, 46.161 231.063, 41.831 230.360 C 38.566 229.830, 37.795 230.261, 31.556 236.096 M 94.750 253.080 C 92.138 254.601, 92.614 259.170, 95.844 263.600 C 102.382 272.563, 140.629 307.857, 167.260 329.500 L 170.951 332.500 167.391 377.345 C 165.433 402.010, 164.101 423.267, 164.431 424.582 C 165.748 429.828, 165.318 429.773, 233.075 433.342 C 267.959 435.179, 297.489 436.324, 298.698 435.886 C 303.373 434.191, 303.757 432.191, 306.259 396.500 C 307.570 377.800, 308.314 362.113, 307.911 361.640 C 307.509 361.167, 305.090 362.218, 302.537 363.975 C 295.752 368.643, 276.514 377.604, 269 379.595 C 260.014 381.978, 249.950 381.789, 242.500 379.098 C 239.200 377.907, 233.609 376.260, 230.076 375.440 C 218.603 372.776, 214.014 368.309, 213.839 359.640 C 213.660 350.722, 217.761 345.708, 236.446 332 C 243.351 326.935, 249 322.724, 249 322.643 C 249 322.562, 243.262 322.481, 236.250 322.464 C 226.836 322.440, 221.799 321.940, 217 320.555 C 200.458 315.781, 185.579 305.360, 174.800 291 C 171.318 286.362, 165.203 274.047, 163.451 268.146 L 162.047 263.420 153.274 261.630 C 148.448 260.646, 136.476 258.076, 126.670 255.920 C 108.893 252.012, 98.215 251.062, 94.750 253.080 M 295.958 296.555 C 293.506 299.061, 288.462 303.190, 284.750 305.732 C 281.038 308.273, 278 310.746, 278 311.226 C 278 311.706, 278.641 313.339, 279.425 314.855 L 280.850 317.610 270.237 324.055 C 249.479 336.661, 226 355.308, 226 359.188 C 226 361.202, 231.196 364, 234.937 364 C 236.038 364, 240.385 365.125, 244.597 366.500 C 248.809 367.875, 254.175 369, 256.522 369 C 268.011 369, 291.964 357.537, 312.879 342.030 C 323.135 334.425, 325.864 329.438, 324.094 321.529 C 323.445 318.629, 321.526 314.061, 319.831 311.378 C 316.790 306.567, 302.806 292, 301.228 292 C 300.782 292, 298.410 294.050, 295.958 296.555 M 379 349.500 L 379 366 353.155 366 C 329.802 366, 327.159 366.169, 325.748 367.750 C 322.928 370.909, 323.133 376.114, 326.189 378.961 C 328.272 380.902, 329.598 381, 353.689 381 L 379 381 379 397.617 C 379 413.203, 379.113 414.204, 380.823 413.757 C 383.801 412.978, 434 374.873, 434 373.391 C 434 371.752, 382.690 333, 380.520 333 C 379.222 333, 379 335.406, 379 349.500" stroke="none" fill="#0454fc" fill-rule="evenodd"/></svg>